PathFileType	4	(X/Y/Z)	OpenSim_Sub03_EMGBaseline_Accel.trc
DataRate	CameraRate	NumFrames	NumMarkers	Units	OrigDataRate	OrigDataStartFrame	OrigNumFrames
100	100	41	8	m	100	3687	7372
Frame#	Time	torso_imu_offset_imu	pelvis_imu_offset_imu	tibia_r_imu_offset_imu	femur_r_imu_offset_imu	tibia_l_imu_offset_imu	femur_l_imu_offset_imu	toes_r_imu_offset_imu	toes_l_imu_offset_imu
				X1	Y1	Z1	X2	Y2	Z2	X3	Y3	Z3	X4	Y4	Z4	X5	Y5	Z5	X6	Y6	Z6	X7	Y7	Z7	X8		Y8	Z8	

3687	36.86000000	10.56909961	-0.04249434	5.32134412	10.06844697	0.81727374	3.30242312	10.15083874	0.58555100	-0.97148051	9.52781146	0.11698264	-1.74185064	3.47609776	-2.78617171	2.26709977	10.67988584	1.87485030	0.72004486	6.03449261	-2.70252321	7.39786951	-0.37821856	5.63827789	9.33407132
3688	36.87000000	10.20107452	0.16018113	5.42214004	10.01202921	1.13304212	3.27881526	10.40040999	-0.94426366	-0.78831856	9.69315205	-0.52696238	-1.43451231	4.21406535	-2.76954295	3.03833976	10.41963095	1.51052322	0.65480215	6.05156880	-2.84684987	7.56182549	0.57336992	5.70855053	9.94535771
3689	36.88000000	9.80088607	0.24892045	5.49676920	9.81588743	1.36814152	3.27969021	10.24498375	-1.86658481	-0.49782346	9.79046181	-0.58545162	-0.72657792	4.78167271	-3.27167597	3.34059924	10.39185381	1.24655405	0.37334499	5.98030142	-2.95935327	7.48338148	1.50649353	5.47777582	10.19462586
3690	36.89000000	9.62437536	0.40212170	5.56100245	9.58388632	1.36948768	3.22386337	9.99123862	-1.74579307	-0.10370197	9.87218244	-0.58046282	-0.10945734	4.99812794	-3.90396016	2.85454523	10.29601482	0.96271633	0.18053569	5.85190924	-2.82769613	7.52222300	2.13205788	5.52139958	10.48324819
3691	36.90000000	9.44546785	0.50797059	5.52278906	9.48268220	1.20761959	3.15047669	10.10393511	-1.33379762	-0.17311955	10.05174645	-0.94706264	0.04461510	4.88985904	-4.01366156	2.31529447	10.20578608	0.78805335	0.33061726	5.64926595	-2.98960328	7.81330094	2.67499894	4.74000045	10.62682244
3692	36.91000000	9.26825901	0.45205777	5.47698128	9.44208241	0.95047804	3.05809025	10.35077959	-0.92914575	-0.33706954	10.05903606	-1.48528598	-0.23826716	4.77343632	-3.94199143	2.17880336	10.16451585	0.75361019	0.66489407	5.80233379	-3.18409455	7.54919680	3.30505735	3.58601841	10.87381579
3693	36.92000000	9.08466859	0.42291488	5.54661755	9.40227565	0.60717747	2.93735724	10.31746197	-0.29167033	-0.38861769	9.85040856	-1.78163265	-0.80023175	5.04034294	-3.96618157	2.22207412	10.16210230	0.70699092	0.94479430	6.15345582	-2.82712213	7.42763661	3.51185640	2.06635000	10.44314662
3694	36.93000000	8.89142092	0.31170606	5.58286964	9.43899249	0.22427431	2.76017680	10.22646309	0.52777687	-0.55827388	9.62488139	-1.79369680	-1.20400628	5.30881339	-4.07766773	2.22725581	10.18448787	0.70909257	1.00461154	6.41544674	-2.43033260	7.45490522	3.95439393	0.66435844	10.22277386
3695	36.94000000	8.79163644	0.21175621	5.59868312	9.39232679	-0.06770536	2.61485952	10.14067251	1.33470115	-0.47485253	9.42803018	-1.55659230	-1.21441606	5.31488294	-4.44889809	2.00325124	10.18136990	0.58324586	0.76378894	6.27109108	-2.45361701	7.42980659	4.79399163	-0.01659041	10.39915339
3696	36.95000000	8.80796832	0.01129718	5.58183757	9.35264284	-0.31953708	2.49318541	10.01919146	1.66285453	-0.46937069	9.37719257	-1.17202618	-0.85929257	5.25852052	-5.18389470	1.59375825	10.06551946	0.46757758	0.41919769	6.27800220	-2.40563499	7.47232022	5.65073977	-0.23362884	10.66703594
3697	36.96000000	8.80628489	-0.14992737	5.68549002	9.27662530	-0.37813514	2.42818234	9.93424758	1.51702831	-0.58736501	9.41131111	-0.77623318	-0.48545970	5.44645973	-6.10328174	1.22895037	9.86685033	0.21725526	0.21830490	6.53810893	-2.13024972	7.33946452	6.47418779	-0.46968510	10.93641159
3698	36.97000000	8.76226604	-0.25703755	5.75691275	9.31546336	-0.21204982	2.37947414	9.81617126	1.43039790	-0.53959633	9.36457608	-0.56333590	-0.32943992	5.88050025	-7.00192949	0.88563665	9.68760273	-0.13439307	0.10064646	6.83913111	-2.24583915	7.04410973	7.01146167	-1.16888301	11.01971743
3699	36.98000000	8.65829742	-0.34231084	5.75863849	9.43351406	-0.02473679	2.32586037	9.68463953	1.30384280	-0.53116220	9.24875849	-0.55224630	-0.31459797	6.21655743	-7.51334950	0.48385564	9.49925747	-0.63686359	0.21044544	6.56271648	-2.48827525	7.12404646	7.49761853	-1.97632500	10.92679254
3700	36.99000000	8.65231728	-0.35327746	5.77245139	9.50878478	0.16922586	2.22357426	9.69485770	1.11856662	-0.41546321	9.19863731	-0.59610046	-0.34215420	6.18300668	-7.22680639	0.35295294	9.20906866	-1.19294397	0.15847411	6.34319417	-2.61109696	7.23283907	7.77324215	-2.04940666	10.78374482
3701	37	8.70156561	-0.39260207	5.78019882	9.39260619	0.32952349	2.20058656	9.74897341	1.04450060	-0.48166221	9.26105794	-0.43060530	-0.49253894	6.07254216	-6.63753626	0.38125786	8.93129128	-1.46169108	0.07147446	6.39013140	-2.72321215	7.15442454	8.01780910	-1.33413631	10.83391489
3702	37.01000000	8.76355257	-0.45505160	5.76442566	9.25104948	0.57694243	2.17825852	9.69362691	1.15443160	-0.65227621	9.34171168	-0.17803242	-0.56825180	6.09252597	-6.13708958	0.53088742	8.82744415	-1.58180536	0.19296945	6.43773846	-2.89886991	6.87645521	8.71243612	-0.30209917	11.05613668
3703	37.02000000	8.92061480	-0.43921217	5.76377243	9.12402016	0.57262332	2.10695055	9.58750364	1.01901008	-0.71585003	9.34109561	-0.10194089	-0.43279894	6.22885266	-5.45210900	0.99426906	8.79488454	-1.44184869	0.32706177	6.55174959	-2.73987662	6.96143009	9.36940440	0.61793335	11.29566343
3704	37.03000000	9.00797686	-0.42749125	5.82119060	8.98542565	0.43490731	2.10580924	9.65602898	0.76507578	-0.72073954	9.32858982	-0.26799753	-0.32713518	6.52214316	-4.46137970	1.43658092	8.70970915	-1.11523841	0.40550948	6.51643209	-2.89432731	6.89622438	10.09356845	1.37194898	11.41453060
3705	37.04000000	8.99477867	-0.39775576	5.83903080	9.05697191	0.65269573	2.08345032	9.79342941	0.76159884	-0.63032755	9.35571907	-0.48488031	-0.35375563	6.92525948	-3.36198912	1.99279271	8.58006409	-0.74460895	0.46709133	6.53618286	-2.87085001	6.91412422	10.65309548	2.26253962	11.28996272
3706	37.05000000	9.00241389	-0.33030166	5.80671510	9.20259176	0.60582712	1.95480655	9.71464149	1.15148864	-0.49710518	9.40450006	-0.61101464	-0.39188841	7.41540015	-2.46358509	2.37160916	8.39018035	-0.32909790	0.42735761	6.68782900	-2.58696162	6.89243892	10.83126480	3.11048819	11.00907354
3707	37.06000000	9.00674775	-0.26430084	5.80594594	9.32995394	0.62369399	1.81282578	9.69189819	1.11246987	-0.47019783	9.40668009	-0.61243718	-0.33890664	7.94766594	-2.07651205	2.46523213	8.19458144	0.20858279	0.39626306	6.86583761	-2.51724907	6.69192423	11.03034916	3.66119774	10.76115359
3708	37.07000000	8.83854103	-0.23801392	5.85966857	9.44419598	0.63997632	1.68012202	9.86141613	0.73219556	-0.40064105	9.40164768	-0.69061838	-0.32271740	8.67115790	-2.16833240	2.46061230	8.20878473	0.89094755	0.38209807	6.64955115	-2.62294502	6.92838375	11.24275980	3.84711631	10.68342004
3709	37.08000000	8.77723224	-0.21108085	5.86780137	9.43939786	0.64984366	1.57756848	9.93921349	0.86906043	-0.29393061	9.48797248	-0.67654367	-0.27132435	9.57099061	-2.49124315	2.23402054	8.35575970	1.77901408	0.42968851	6.50949420	-2.74208937	6.95084072	11.66921596	3.84872990	10.80423249
3710	37.09000000	8.81685437	-0.20659980	5.91664225	9.41453935	0.65584530	1.45745372	9.99044397	1.20613951	-0.15540085	9.68097776	-0.53767659	-0.19054769	10.39430285	-2.80569470	1.81179876	8.55777331	2.66111110	0.64516409	6.68565227	-2.36631193	6.93518089	12.17480296	3.54182725	10.90258501
3711	37.10000000	8.83262288	-0.18547966	5.93871846	9.32466902	0.67517005	1.36127435	10.10865692	1.29592000	-0.10385371	9.83378325	-0.67428121	-0.08069231	10.91271881	-3.08500053	1.14051568	8.60001577	3.15544810	1.03486075	7.01972198	-2.03902683	6.90856683	12.79971254	2.73193196	11.05970075
3712	37.11000000	8.96553249	-0.14036965	5.99823359	9.40029365	0.71112421	1.25679250	10.01399640	1.30689810	0.02620513	9.76237802	-0.69724630	-0.05395846	11.13415819	-3.37671859	0.47612561	8.52733066	3.53088713	0.95145601	6.92009262	-2.16253549	6.90257419	13.69060872	1.80430729	11.35904567
3713	37.12000000	8.99215908	-0.11387271	6.02686968	9.48801096	0.81316270	1.16659541	9.98480537	1.03216740	0.11751521	9.62503533	-0.82102643	-0.24938900	11.61503435	-3.72957852	0.05724111	8.51298713	3.83138474	0.42005389	6.85646967	-2.13757610	7.01487004	14.56162691	0.75716420	11.44432620
3714	37.13000000	8.98400438	-0.10806863	6.05078764	9.53838869	1.02675921	1.14014695	10.03089542	0.78722755	0.08655212	9.55721877	-0.89328188	-0.49136748	12.53540807	-3.75632157	-0.30470990	8.47371186	3.76562876	0.27733186	6.89845260	-2.08166956	6.86406214	15.13412982	-0.04333962	11.10069059
3715	37.14000000	8.98761827	-0.13866936	6.14246519	9.53747810	1.12994940	1.10109121	9.95781788	0.78164315	-0.01304320	9.51638038	-0.94452009	-0.59377536	12.87400472	-3.18611673	-0.67179442	8.34334840	3.78009994	0.42245488	7.10625331	-1.94906702	6.63540734	15.84939856	-0.06427500	10.43859526
3716	37.15000000	9.03860294	-0.12872874	6.15777356	9.41115092	1.03775791	1.02596615	9.87082485	0.94174274	-0.15056320	9.43172459	-1.18546650	-0.62985355	12.13782797	-1.96374412	-0.54890286	8.48178429	3.90426605	0.59232640	7.16612421	-2.14362759	6.66542957	16.93903681	0.61953115	9.56159055
3717	37.16000000	9.11599145	-0.07921294	6.20563639	9.42790646	1.20148474	0.97370092	9.97578105	1.05487757	-0.21730768	9.37316176	-1.14149137	-0.62096717	11.26119947	-0.35879071	0.24559064	8.60937814	4.08808467	0.55408742	7.09501557	-2.18677459	6.67531370	17.36584821	2.02639716	8.51803917
3718	37.17000000	9.15907365	-0.07819172	6.24949315	9.47263864	1.10349032	1.00494380	9.99601259	1.15445983	-0.39590359	9.45485590	-0.81986355	-0.65328725	11.29659270	0.91533635	0.72829420	8.84181446	4.23456320	0.48925974	7.17437295	-2.23382236	6.61280504	16.60617629	1.39624851	6.08846852
3719	37.18000000	9.21258707	-0.07543755	6.28851466	9.51977322	0.86987757	1.01743431	10.02112296	1.22716764	-0.53357824	9.56715461	-0.70995665	-0.63739382	11.75662189	1.17982522	0.91188359	9.03054013	4.39745637	0.41726666	7.33283107	-2.28268753	6.36952402	16.50308407	-0.94232978	4.33230094
3720	37.19000000	9.29647217	-0.08533682	6.33072939	9.61740598	0.92970640	1.08909385	10.02645982	1.18373384	-0.40284098	9.59438175	-0.95652721	-0.61298682	12.07625491	-0.66047685	0.61591008	8.82074857	4.51247568	0.37522942	7.42403535	-2.19041511	6.38082361	16.83896765	-2.05802580	3.77371188
3721	37.20000000	9.22489627	-0.11911503	6.38527275	9.64551463	0.88216004	1.21575724	10.05861574	1.26906291	-0.17384005	9.61202849	-0.90398568	-0.54245104	11.73363953	-3.18632017	-1.36889926	8.75034208	4.65359751	0.28191301	7.23018496	-2.31638015	6.43588541	16.00268379	-3.18017344	0.65198018
3722	37.21000000	9.19099728	-0.18408998	6.40570512	9.54031242	0.75995906	1.28521350	10.13702183	0.97646405	-0.12191462	9.73031166	-0.78360626	-0.46301408	10.38485940	-2.20527507	-2.04276310	8.76241211	5.19179940	0.05956597	7.20187825	-2.48173459	6.43467860	16.86165459	-2.99850254	-2.59195453
3723	37.22000000	9.17442235	-0.23463171	6.39878533	9.43209712	0.39076111	1.23173107	10.12565500	0.58910204	0.17982345	9.78983276	-0.97523907	-0.27570737	9.68102194	0.96094128	-0.85251731	9.14568940	6.13686920	0.31220872	7.35852454	-2.25687258	6.38139965	17.88078336	-2.96544634	-5.63072353
3724	37.23000000	9.09343724	-0.27776743	6.50493172	9.28333252	0.16330237	1.11742474	10.08143722	0.61665608	0.32813330	9.65151490	-1.51713520	-0.09516511	10.02684600	2.67246408	-0.93426022	9.96676431	7.13383749	1.21552752	7.53936884	-1.89429915	6.16720710	16.77644780	-1.21314290	-7.52047770
3725	37.24000000	9.01559297	-0.30779819	6.45114543	9.28176576	0.37195833	0.91240312	9.96734836	0.73326269	0.57979862	9.46396409	-1.57169547	-0.07204827	10.06198140	2.81255824	-1.22863160	10.45266918	7.89025216	1.86162431	7.52861076	-1.72195568	6.22286342	15.37921958	1.36744698	-7.87771207
3726	37.25000000	9.10363846	-0.32678420	6.31413652	9.28177118	0.42486119	0.55476983	10.04004976	0.52720511	0.68247202	9.53082955	-1.43604236	-0.19025239	9.86505170	2.37937020	-0.07629941	10.03203534	7.86639076	1.60674511	7.51153208	-1.72342603	6.32265483	16.35637250	3.76546029	-6.43237344
3727	37.26000000	9.23737723	-0.36008975	6.26607688	9.22852891	0.52139040	0.11242060	10.24104953	0.28178635	0.75367815	9.62814973	-1.59982332	-0.14470572	9.68264943	1.30913095	1.60882361	9.14815511	6.80503955	0.95855347	7.26523381	-1.83429788	6.35898349	14.35836942	0.91259981	-5.36350613
